<svg id="svg" version="1.1" xmlns="http://www.w3.org/2000/svg" xmlns:xlink="http://www.w3.org/1999/xlink" width="400" height="277.40000000000003" viewBox="0, 0, 400,277.40000000000003"><g id="svgg"><path id="path0" d="M199.167 52.184 C 181.140 53.690,165.532 61.578,160.454 71.750 C 157.976 76.714,157.956 97.326,160.425 101.489 C 160.829 102.171,161.322 103.221,161.519 103.822 C 162.843 107.852,163.279 106.183,163.500 96.250 C 163.586 92.413,163.721 89.494,163.830 89.125 C 164.785 85.907,166.333 94.764,166.333 103.443 L 166.333 107.165 164.208 108.555 C 157.929 112.661,157.441 114.999,162.250 117.923 C 162.983 118.369,165.460 119.946,167.754 121.427 C 174.417 125.732,174.394 125.727,176.939 123.480 C 178.736 121.894,180.957 120.997,183.077 121.002 C 184.961 121.007,185.155 121.330,184.575 123.500 C 184.073 125.378,184.124 130.170,184.652 130.734 C 186.332 132.526,199.693 133.741,205.042 132.589 C 206.119 132.357,207.881 131.978,208.958 131.747 C 210.035 131.516,211.822 131.260,212.928 131.179 C 215.710 130.973,216.592 130.572,217.176 129.250 C 217.813 127.811,217.703 124.024,216.994 122.917 C 216.016 121.391,216.252 120.998,218.143 121.002 C 220.494 121.008,222.725 121.859,224.667 123.493 C 227.215 125.638,227.545 125.590,232.348 122.377 C 234.728 120.785,236.347 119.801,239.500 118.027 C 243.639 115.699,243.426 113.007,238.827 109.502 C 235.390 106.882,235.163 106.523,235.169 103.700 C 235.175 100.972,236.063 93.684,236.758 90.668 C 237.169 88.879,237.872 88.552,238.433 89.888 C 238.687 90.495,238.739 91.456,238.841 97.417 C 238.964 104.594,239.116 106.000,239.765 106.000 C 241.691 106.000,242.534 82.946,240.904 74.849 C 238.536 63.085,232.350 57.243,218.500 53.689 C 213.141 52.313,205.108 51.688,199.167 52.184 M218.542 96.246 C 226.051 98.202,229.701 105.239,226.583 111.750 C 225.038 114.976,223.569 115.532,216.500 115.567 C 211.063 115.593,210.669 115.280,208.143 108.939 C 206.670 105.243,206.197 102.462,206.729 100.632 C 207.718 97.230,213.738 94.995,218.542 96.246 M190.552 96.405 C 196.090 97.465,196.922 102.479,193.028 111.333 C 191.370 115.104,190.311 115.669,184.917 115.661 C 177.753 115.649,176.131 114.588,174.614 108.917 C 173.304 104.018,175.199 99.837,179.657 97.793 C 182.440 96.517,187.661 95.852,190.552 96.405 M202.905 109.428 C 203.403 109.927,204.018 111.147,205.012 113.609 C 208.159 121.404,208.619 125.835,206.353 126.514 C 205.703 126.709,205.766 126.719,202.813 125.905 L 201.710 125.601 199.730 126.149 C 196.610 127.013,196.340 126.857,196.336 124.193 C 196.331 121.096,197.644 116.281,199.172 113.799 C 199.449 113.348,199.784 112.566,199.916 112.061 C 200.463 109.959,202.044 108.567,202.905 109.428 M176.756 130.896 C 176.177 131.474,175.620 132.668,174.916 134.833 C 173.834 138.164,173.217 139.896,172.431 141.817 C 171.494 144.104,171.442 143.561,172.887 146.555 C 177.299 155.693,184.732 162.427,191.500 163.416 C 205.763 165.501,221.397 161.599,225.887 154.833 C 226.915 153.284,228.809 149.347,229.054 148.250 C 229.685 145.418,229.853 137.860,229.338 135.417 C 228.235 130.177,224.296 131.262,223.167 137.116 C 222.738 139.339,222.360 140.418,220.986 143.333 C 220.360 144.662,219.777 146.070,219.691 146.462 C 218.616 151.344,198.084 154.805,189.002 151.634 C 183.349 149.660,180.162 145.177,179.668 138.500 C 179.343 134.116,178.592 131.162,177.677 130.672 C 177.238 130.437,177.207 130.445,176.756 130.896 M217.293 133.353 C 216.372 133.868,216.046 136.739,216.821 137.513 C 217.877 138.570,218.584 137.939,218.582 135.941 C 218.579 134.056,218.025 132.943,217.293 133.353 M184.669 134.370 C 183.405 135.726,183.422 138.500,184.693 138.500 C 185.803 138.500,186.052 138.076,185.969 136.335 C 185.871 134.291,185.402 133.582,184.669 134.370 M208.899 135.424 C 207.939 136.442,207.336 139.208,207.853 140.219 C 208.415 141.319,210.291 141.578,211.062 140.662 C 212.819 138.574,210.721 133.492,208.899 135.424 M213.509 135.158 C 212.674 135.992,212.604 138.593,213.397 139.275 C 214.348 140.093,215.333 139.444,215.333 137.998 C 215.333 135.846,214.351 134.316,213.509 135.158 M192.436 135.838 C 191.339 136.802,190.833 140.298,191.704 140.907 C 192.806 141.679,194.974 141.098,195.428 139.909 C 196.406 137.350,194.174 134.313,192.436 135.838 M187.929 136.056 C 186.818 137.167,186.737 140.170,187.817 140.166 C 189.298 140.161,189.907 139.465,189.652 138.071 C 189.290 136.091,188.647 135.338,187.929 136.056 M199.055 136.824 C 197.618 137.700,196.671 141.481,197.623 142.542 C 197.956 142.913,199.588 142.940,200.429 142.589 C 202.366 141.780,201.733 136.490,199.700 136.501 C 199.636 136.501,199.345 136.646,199.055 136.824 M203.817 136.850 C 202.568 138.099,202.168 141.513,203.164 142.415 C 204.064 143.229,206.150 142.805,206.613 141.714 C 207.524 139.565,205.179 135.487,203.817 136.850 M216.254 141.658 C 215.571 142.980,216.419 145.758,217.468 145.634 C 218.387 145.526,219.021 143.168,218.435 142.036 C 217.913 141.027,216.690 140.815,216.254 141.658 M184.456 142.042 C 183.651 142.653,183.615 145.753,184.409 146.057 C 185.027 146.294,186.000 144.540,186.000 143.189 C 186.000 142.182,185.126 141.533,184.456 142.042 M213.443 143.602 C 212.364 144.681,212.906 147.650,214.210 147.802 C 215.495 147.952,215.903 144.722,214.746 143.564 C 214.238 143.056,213.982 143.064,213.443 143.602 M187.415 143.670 C 186.644 144.918,187.544 148.959,188.468 148.398 C 189.274 147.909,189.869 144.702,189.296 143.941 C 189.007 143.559,187.608 143.357,187.415 143.670 M208.640 143.861 C 207.527 144.507,207.459 146.380,208.471 148.500 C 209.094 149.803,210.738 149.174,211.254 147.435 C 212.051 144.750,210.579 142.737,208.640 143.861 M265.917 144.164 C 262.580 144.693,258.811 147.595,255.387 152.273 C 246.232 164.779,236.069 170.157,189.917 186.916 C 161.719 197.155,160.368 197.495,147.796 197.498 L 141.509 197.500 136.963 195.311 C 125.456 189.770,124.114 189.505,121.291 192.218 C 118.363 195.031,119.221 199.820,123.634 205.295 L 124.879 206.840 124.039 208.631 C 121.732 213.550,122.062 215.725,125.667 219.336 C 130.605 224.285,134.019 224.649,139.802 220.847 C 141.573 219.682,143.352 218.766,147.971 216.642 C 163.259 209.610,176.045 204.416,206.940 192.688 C 212.244 190.675,220.896 187.380,226.167 185.366 C 250.038 176.246,254.941 174.737,262.833 174.081 C 272.315 173.293,275.232 171.094,274.504 165.285 C 274.183 162.725,273.921 162.261,271.760 160.430 C 270.058 158.987,270.002 158.071,271.413 154.767 C 274.141 148.381,271.496 143.280,265.917 144.164 M192.439 144.835 C 191.449 145.329,191.318 145.586,191.373 146.917 C 191.493 149.810,193.144 150.727,194.355 148.573 C 195.913 145.805,194.809 143.652,192.439 144.835 M197.760 145.165 C 196.410 145.425,196.103 147.174,196.993 149.535 C 198.344 153.115,200.620 151.261,201.077 146.208 L 201.187 145.000 199.802 145.019 C 199.040 145.030,198.121 145.095,197.760 145.165 M202.583 145.138 L 202.083 145.257 202.103 146.754 C 202.136 149.341,203.314 151.460,204.509 151.080 C 205.557 150.748,206.705 145.800,205.842 145.338 C 205.426 145.116,203.238 144.981,202.583 145.138 M132.583 146.836 C 129.239 147.520,127.774 150.117,127.487 155.872 C 127.308 159.460,127.186 159.909,125.699 162.480 C 122.040 168.803,122.227 172.302,126.458 176.691 L 127.881 178.167 133.259 178.167 C 141.144 178.167,139.832 177.801,165.497 187.146 C 173.067 189.902,173.257 189.961,173.830 189.740 C 174.153 189.615,177.492 188.431,181.250 187.109 C 188.403 184.592,191.130 183.592,191.297 183.425 C 191.650 183.072,189.770 182.171,183.167 179.531 C 178.431 177.638,175.472 176.422,171.333 174.669 C 153.080 166.938,146.470 162.265,142.464 154.257 C 139.687 148.704,136.212 146.094,132.583 146.836 M264.078 154.542 C 264.703 156.549,264.209 160.934,263.285 161.582 C 261.198 163.044,258.996 159.327,260.275 156.500 C 261.152 154.560,263.678 153.259,264.078 154.542 M263.091 164.682 C 266.068 165.232,265.556 165.819,260.644 167.487 C 257.245 168.641,254.007 169.974,248.167 172.622 C 237.575 177.425,234.212 178.563,233.037 177.741 C 231.778 176.859,233.977 175.231,238.667 173.574 C 241.356 172.624,243.809 171.517,249.167 168.837 C 257.953 164.442,259.421 164.004,263.091 164.682 M131.653 167.825 C 132.755 168.975,133.313 169.419,134.083 169.758 C 135.803 170.516,135.748 171.699,133.975 172.089 C 131.467 172.640,127.880 168.286,129.504 166.662 C 130.005 166.162,130.115 166.221,131.653 167.825 M140.248 172.066 C 140.820 172.442,140.773 172.927,140.100 173.600 C 139.049 174.651,137.667 174.203,137.667 172.811 C 137.667 171.703,139.073 171.297,140.248 172.066 M149.609 174.704 C 150.122 175.218,148.142 176.807,146.641 177.085 C 145.460 177.304,144.870 175.806,145.753 174.830 C 146.244 174.287,149.099 174.194,149.609 174.704 M217.417 191.823 C 212.125 193.644,201.500 197.944,201.500 198.265 C 201.500 198.524,205.240 199.675,220.333 204.061 C 250.497 212.826,250.777 212.946,258.417 220.312 C 265.102 226.759,266.006 227.151,268.871 224.848 C 272.914 221.596,274.638 218.764,274.663 215.333 C 274.673 213.939,274.991 212.765,275.713 211.461 C 276.385 210.245,276.616 209.583,276.834 208.245 C 277.021 207.094,277.604 206.159,279.324 204.250 C 284.153 198.888,282.632 195.453,275.417 195.427 C 272.590 195.417,271.631 195.528,269.000 196.174 C 258.484 198.755,247.150 197.884,229.500 193.138 C 220.316 190.669,220.662 190.707,217.417 191.823 M235.155 199.621 C 235.867 200.485,235.817 200.613,234.550 201.182 C 232.556 202.076,232.128 201.659,233.247 199.910 C 233.972 198.776,234.404 198.711,235.155 199.621 M133.667 202.514 C 134.903 204.181,134.911 204.368,133.826 206.398 C 132.411 209.046,131.873 208.964,131.251 206.004 C 130.304 201.503,131.566 199.680,133.667 202.514 M249.047 203.175 C 249.617 203.363,252.033 204.481,254.417 205.659 C 260.077 208.458,260.230 208.508,263.743 208.702 C 268.657 208.974,269.667 209.774,266.783 211.106 C 265.787 211.566,265.661 211.583,263.250 211.572 C 259.665 211.555,257.455 210.807,252.269 207.855 C 249.810 206.455,249.050 206.230,246.333 206.097 C 243.929 205.979,242.926 205.792,242.458 205.375 C 240.863 203.951,246.099 202.203,249.047 203.175 M156.333 205.761 C 156.333 206.954,147.242 211.916,139.000 215.220 C 134.104 217.184,132.424 217.276,133.319 215.532 C 133.989 214.224,134.244 214.098,140.000 212.209 C 144.668 210.676,148.040 209.362,151.698 207.648 C 155.426 205.901,156.333 205.531,156.333 205.761 " stroke="none" fill="#ffffff" fill-rule="evenodd"></path><path id="path1" d="M0.000 138.667 L 0.000 277.333 200.000 277.333 L 400.000 277.333 400.000 138.667 L 400.000 0.000 200.000 0.000 L 0.000 0.000 0.000 138.667 M210.917 52.325 C 229.078 54.496,238.184 61.336,240.904 74.849 C 242.534 82.946,241.691 106.000,239.765 106.000 C 239.116 106.000,238.964 104.594,238.841 97.417 C 238.739 91.456,238.687 90.495,238.433 89.888 C 237.872 88.552,237.169 88.879,236.758 90.668 C 236.063 93.684,235.175 100.972,235.169 103.700 C 235.163 106.523,235.390 106.882,238.827 109.502 C 243.426 113.007,243.639 115.699,239.500 118.027 C 236.347 119.801,234.728 120.785,232.348 122.377 C 227.545 125.590,227.215 125.638,224.667 123.493 C 222.725 121.859,220.494 121.008,218.143 121.002 C 216.252 120.998,216.016 121.391,216.994 122.917 C 217.703 124.024,217.813 127.811,217.176 129.250 C 216.592 130.572,215.710 130.973,212.928 131.179 C 211.822 131.260,210.035 131.516,208.958 131.747 C 207.881 131.978,206.119 132.357,205.042 132.589 C 199.693 133.741,186.332 132.526,184.652 130.734 C 184.124 130.170,184.073 125.378,184.575 123.500 C 185.155 121.330,184.961 121.007,183.077 121.002 C 180.957 120.997,178.736 121.894,176.939 123.480 C 174.394 125.727,174.417 125.732,167.754 121.427 C 165.460 119.946,162.983 118.369,162.250 117.923 C 157.441 114.999,157.929 112.661,164.208 108.555 L 166.333 107.165 166.333 103.443 C 166.333 94.764,164.785 85.907,163.830 89.125 C 163.721 89.494,163.586 92.413,163.500 96.250 C 163.279 106.183,162.843 107.852,161.519 103.822 C 161.322 103.221,160.829 102.171,160.425 101.489 C 157.956 97.326,157.976 76.714,160.454 71.750 C 166.789 59.060,190.596 49.896,210.917 52.325 M213.923 96.009 C 206.614 97.146,204.938 100.895,208.143 108.939 C 210.669 115.280,211.063 115.593,216.500 115.567 C 224.317 115.529,226.342 114.382,227.514 109.333 C 229.213 102.014,221.833 94.779,213.923 96.009 M185.000 96.435 C 175.667 97.686,172.225 102.943,175.330 111.206 C 176.653 114.728,178.639 115.651,184.917 115.661 C 190.311 115.669,191.370 115.104,193.028 111.333 C 197.994 100.040,195.307 95.054,185.000 96.435 M201.355 109.590 C 200.665 110.171,200.200 110.970,199.916 112.061 C 199.784 112.566,199.449 113.348,199.172 113.799 C 197.644 116.281,196.331 121.096,196.336 124.193 C 196.340 126.857,196.610 127.013,199.730 126.149 L 201.710 125.601 202.813 125.905 C 205.766 126.719,205.703 126.709,206.353 126.514 C 208.619 125.835,208.159 121.404,205.012 113.609 C 203.238 109.214,202.615 108.530,201.355 109.590 M177.677 130.672 C 178.592 131.162,179.343 134.116,179.668 138.500 C 179.982 142.746,182.081 147.410,184.518 149.279 C 187.911 151.880,191.310 152.744,198.167 152.748 C 209.214 152.754,218.930 149.916,219.691 146.462 C 219.777 146.070,220.360 144.662,220.986 143.333 C 222.360 140.418,222.738 139.339,223.167 137.116 C 224.296 131.262,228.235 130.177,229.338 135.417 C 229.853 137.860,229.685 145.418,229.054 148.250 C 228.809 149.347,226.915 153.284,225.887 154.833 C 221.397 161.599,205.763 165.501,191.500 163.416 C 184.732 162.427,177.299 155.693,172.887 146.555 C 171.442 143.561,171.494 144.104,172.431 141.817 C 173.217 139.896,173.834 138.164,174.916 134.833 C 176.013 131.457,176.833 130.221,177.677 130.672 M218.277 133.971 C 218.992 135.417,218.576 138.000,217.628 138.000 C 216.476 138.000,216.005 136.225,216.678 134.425 C 217.202 133.025,217.734 132.874,218.277 133.971 M185.613 134.438 C 186.579 135.912,185.993 138.500,184.693 138.500 C 183.637 138.500,183.421 137.665,183.995 135.804 C 184.506 134.151,185.097 133.652,185.613 134.438 M210.489 135.193 C 211.326 135.972,211.870 138.114,211.598 139.562 C 211.115 142.137,207.667 141.669,207.667 139.029 C 207.667 136.426,209.353 134.134,210.489 135.193 M214.542 135.254 C 215.398 136.110,215.631 138.551,214.924 139.258 C 213.647 140.534,212.369 138.510,212.992 136.198 C 213.335 134.922,213.879 134.591,214.542 135.254 M194.398 135.681 C 195.859 136.831,196.028 140.213,194.660 140.920 C 192.844 141.859,191.333 141.109,191.333 139.270 C 191.333 136.325,192.893 134.498,194.398 135.681 M189.214 136.536 C 190.060 138.335,189.866 139.670,188.710 139.991 C 187.355 140.367,186.898 139.991,187.052 138.627 C 187.351 135.989,188.455 134.921,189.214 136.536 M200.243 136.694 C 201.956 137.474,202.096 141.893,200.429 142.589 C 198.060 143.579,196.852 142.488,197.401 139.856 C 197.886 137.530,199.104 136.175,200.243 136.694 M205.350 136.850 C 206.991 138.491,207.214 141.982,205.719 142.607 C 203.614 143.487,202.234 142.166,202.665 139.684 C 203.117 137.082,204.316 135.816,205.350 136.850 M217.843 141.338 C 219.086 142.004,218.783 145.479,217.468 145.634 C 216.419 145.758,215.571 142.980,216.254 141.658 C 216.528 141.129,217.199 140.994,217.843 141.338 M185.614 142.196 C 186.107 142.659,186.121 143.498,185.655 144.742 C 184.891 146.784,183.833 146.394,183.833 144.069 C 183.833 142.196,184.674 141.312,185.614 142.196 M214.746 143.564 C 215.903 144.722,215.495 147.952,214.210 147.802 C 212.906 147.650,212.364 144.681,213.443 143.602 C 213.982 143.064,214.238 143.056,214.746 143.564 M189.296 143.941 C 189.869 144.702,189.274 147.909,188.468 148.398 C 187.544 148.959,186.644 144.918,187.415 143.670 C 187.608 143.357,189.007 143.559,189.296 143.941 M210.515 143.880 C 212.340 145.110,211.447 149.305,209.396 149.136 C 208.598 149.071,208.331 148.597,207.897 146.466 C 207.424 144.144,208.836 142.749,210.515 143.880 M269.275 144.525 C 272.619 145.770,273.485 149.916,271.413 154.767 C 270.002 158.071,270.058 158.987,271.760 160.430 C 273.921 162.261,274.183 162.725,274.504 165.285 C 275.232 171.094,272.315 173.293,262.833 174.081 C 254.941 174.737,250.038 176.246,226.167 185.366 C 220.896 187.380,212.244 190.675,206.940 192.688 C 176.045 204.416,163.259 209.610,147.971 216.642 C 143.352 218.766,141.573 219.682,139.802 220.847 C 134.019 224.649,130.605 224.285,125.667 219.336 C 122.062 215.725,121.732 213.550,124.039 208.631 L 124.879 206.840 123.634 205.295 C 119.221 199.820,118.363 195.031,121.291 192.218 C 124.114 189.505,125.456 189.770,136.963 195.311 L 141.509 197.500 147.796 197.498 C 160.368 197.495,161.719 197.155,189.917 186.916 C 236.069 170.157,246.232 164.779,255.387 152.273 C 260.125 145.800,265.156 142.993,269.275 144.525 M194.404 144.691 C 195.315 145.106,195.293 146.907,194.355 148.573 C 193.144 150.727,191.493 149.810,191.373 146.917 C 191.297 145.091,192.823 143.971,194.404 144.691 M201.077 146.208 C 200.620 151.261,198.344 153.115,196.993 149.535 C 195.731 146.187,196.428 145.066,199.802 145.019 L 201.187 145.000 201.077 146.208 M205.842 145.338 C 206.705 145.800,205.557 150.748,204.509 151.080 C 203.314 151.460,202.136 149.341,202.103 146.754 L 202.083 145.257 202.583 145.138 C 203.238 144.981,205.426 145.116,205.842 145.338 M135.545 147.091 C 138.345 147.888,140.281 149.893,142.464 154.257 C 146.470 162.265,153.080 166.938,171.333 174.669 C 175.472 176.422,178.431 177.638,183.167 179.531 C 189.770 182.171,191.650 183.072,191.297 183.425 C 191.130 183.592,188.403 184.592,181.250 187.109 C 177.492 188.431,174.153 189.615,173.830 189.740 C 173.257 189.961,173.067 189.902,165.497 187.146 C 139.832 177.801,141.144 178.167,133.259 178.167 L 127.881 178.167 126.458 176.691 C 122.227 172.302,122.040 168.803,125.699 162.480 C 127.186 159.909,127.308 159.460,127.487 155.872 C 127.847 148.653,130.577 145.678,135.545 147.091 M262.075 154.401 C 259.661 155.453,259.121 160.184,261.263 161.508 C 263.268 162.747,264.431 161.074,264.281 157.167 C 264.159 153.987,263.867 153.621,262.075 154.401 M257.833 164.894 C 256.141 165.404,254.907 165.965,249.167 168.837 C 243.809 171.517,241.356 172.624,238.667 173.574 C 233.977 175.231,231.778 176.859,233.037 177.741 C 234.212 178.563,237.575 177.425,248.167 172.622 C 254.007 169.974,257.245 168.641,260.644 167.487 C 264.705 166.108,265.521 165.611,264.549 165.109 C 263.198 164.410,259.802 164.301,257.833 164.894 M129.504 166.662 C 127.880 168.286,131.467 172.640,133.975 172.089 C 135.748 171.699,135.803 170.516,134.083 169.758 C 133.313 169.419,132.755 168.975,131.653 167.825 C 130.115 166.221,130.005 166.162,129.504 166.662 M138.042 171.915 C 137.144 172.563,137.783 174.167,138.940 174.167 C 139.627 174.167,140.667 173.276,140.667 172.687 C 140.667 171.925,138.791 171.373,138.042 171.915 M146.476 174.441 C 145.483 174.616,144.967 176.133,145.663 176.830 C 146.299 177.466,148.266 176.773,149.359 175.529 C 150.157 174.620,148.666 174.057,146.476 174.441 M223.083 191.478 C 224.183 191.738,227.071 192.485,229.500 193.138 C 247.150 197.884,258.484 198.755,269.000 196.174 C 274.021 194.942,278.842 195.117,280.790 196.603 C 282.874 198.192,282.359 200.880,279.324 204.250 C 277.604 206.159,277.021 207.094,276.834 208.245 C 276.616 209.583,276.385 210.245,275.713 211.461 C 274.991 212.765,274.673 213.939,274.663 215.333 C 274.638 218.764,272.914 221.596,268.871 224.848 C 266.006 227.151,265.102 226.759,258.417 220.312 C 250.777 212.946,250.497 212.826,220.333 204.061 C 205.240 199.675,201.500 198.524,201.500 198.265 C 201.500 197.944,212.125 193.644,217.417 191.823 C 220.167 190.877,220.467 190.859,223.083 191.478 M233.247 199.910 C 232.128 201.659,232.556 202.076,234.550 201.182 C 235.817 200.613,235.867 200.485,235.155 199.621 C 234.404 198.711,233.972 198.776,233.247 199.910 M131.338 201.463 C 130.486 202.153,131.175 207.592,132.194 208.225 C 132.707 208.543,134.667 205.466,134.667 204.344 C 134.667 202.805,132.256 200.719,131.338 201.463 M244.378 203.305 C 240.627 204.574,241.529 205.862,246.333 206.097 C 249.050 206.230,249.810 206.455,252.269 207.855 C 257.455 210.807,259.665 211.555,263.250 211.572 C 265.661 211.583,265.787 211.566,266.783 211.106 C 269.667 209.774,268.657 208.974,263.743 208.702 C 260.230 208.508,260.077 208.458,254.417 205.659 C 248.143 202.557,247.224 202.342,244.378 203.305 M155.167 206.066 C 154.662 206.278,153.102 206.990,151.698 207.648 C 148.040 209.362,144.668 210.676,140.000 212.209 C 134.244 214.098,133.989 214.224,133.319 215.532 C 132.424 217.276,134.104 217.184,139.000 215.220 C 147.242 211.916,156.333 206.954,156.333 205.761 C 156.333 205.607,156.133 205.660,155.167 206.066 " stroke="none" fill="#000000" fill-rule="evenodd"></path></g></svg>